{
  "accessors": [
    {
      "bufferView": 2,
      "componentType": 5126,
      "count": 21967,
      "max": [
        2.6488587856292725,
        1.9441678524017334,
        4.642902851104736
      ],
      "min": [
        -2.8519725799560547,
        -2.051480293273926,
        1.3966573476791382
      ],
      "type": "VEC3"
    },
    {
      "bufferView": 2,
      "byteOffset": 263604,
      "componentType": 5126,
      "count": 21967,
      "max": [
        1.0,
        0.9986432194709778,
        1.0
      ],
      "min": [
        -1.0,
        -0.9986498951911926,
        -0.9999748468399048
      ],
      "type": "VEC3"
    },
    {
      "bufferView": 1,
      "componentType": 5126,
      "count": 21967,
      "max": [
        0.1411653757095337,
        0.8085746765136719
      ],
      "min": [
        0.06117517501115799,
        0.532070517539978
      ],
      "type": "VEC2"
    },
    {
      "bufferView": 0,
      "componentType": 5125,
      "count": 32979,
      "type": "SCALAR"
    },
    {
      "bufferView": 2,
      "byteOffset": 527208,
      "componentType": 5126,
      "count": 5037,
      "max": [
        3.129316806793213,
        2.244220495223999,
        5.041453838348389
      ],
      "min": [
        -2.916865348815918,
        -2.6607866287231445,
        0.2799534797668457
      ],
      "type": "VEC3"
    },
    {
      "bufferView": 2,
      "byteOffset": 587652,
      "componentType": 5126,
      "count": 5037,
      "max": [
        1.0,
        0.9999822974205017,
        0.9998025298118591
      ],
      "min": [
        -1.0,
        -0.9997669458389282,
        -0.9998751282691956
      ],
      "type": "VEC3"
    },
    {
      "bufferView": 1,
      "byteOffset": 175736,
      "componentType": 5126,
      "count": 5037,
      "max": [
        0.505416989326477,
        0.8879084587097168
      ],
      "min": [
        0.0,
        0.0
      ],
      "type": "VEC2"
    },
    {
      "bufferView": 0,
      "byteOffset": 131916,
      "componentType": 5125,
      "count": 8373,
      "type": "SCALAR"
    },
    {
      "bufferView": 2,
      "byteOffset": 648096,
      "componentType": 5126,
      "count": 36,
      "max": [
        2.78627872467041,
        1.4942572116851807,
        3.8346445560455322
      ],
      "min": [
        -1.2597535848617554,
        -2.1015214920043945,
        1.142333984375
      ],
      "type": "VEC3"
    },
    {
      "bufferView": 2,
      "byteOffset": 648528,
      "componentType": 5126,
      "count": 36,
      "max": [
        1.0,
        0.6917760968208313,
        0.7901453375816345
      ],
      "min": [
        -0.7571542263031006,
        -0.9986429810523987,
        -0.7221120595932007
      ],
      "type": "VEC3"
    },
    {
      "bufferView": 1,
      "byteOffset": 216032,
      "componentType": 5126,
      "count": 36,
      "max": [
        0.36638540029525757,
        0.7237406373023987
      ],
      "min": [
        0.3093528151512146,
        0.58409184217453
      ],
      "type": "VEC2"
    },
    {
      "bufferView": 0,
      "byteOffset": 165408,
      "componentType": 5125,
      "count": 90,
      "type": "SCALAR"
    },
    {
      "bufferView": 2,
      "byteOffset": 648960,
      "componentType": 5126,
      "count": 110,
      "max": [
        0.4166826009750366,
        1.560288429260254,
        4.562992095947266
      ],
      "min": [
        -2.1833181381225586,
        -2.067159414291382,
        0.3104367256164551
      ],
      "type": "VEC3"
    },
    {
      "bufferView": 2,
      "byteOffset": 650280,
      "componentType": 5126,
      "count": 110,
      "max": [
        0.9997376203536987,
        0.9986430406570435,
        0.9704238772392273
      ],
      "min": [
        -0.9997376799583435,
        -0.9986430406570435,
        -0.9986429214477539
      ],
      "type": "VEC3"
    },
    {
      "bufferView": 1,
      "byteOffset": 216320,
      "componentType": 5126,
      "count": 110,
      "max": [
        0.2612553834915161,
        0.8114162087440491
      ],
      "min": [
        0.17518149316310883,
        0.6605686545372009
      ],
      "type": "VEC2"
    },
    {
      "bufferView": 0,
      "byteOffset": 165768,
      "componentType": 5125,
      "count": 168,
      "type": "SCALAR"
    },
    {
      "bufferView": 2,
      "byteOffset": 651600,
      "componentType": 5126,
      "count": 324,
      "max": [
        1.9600507020950317,
        3.5112874507904053,
        5.480652332305908
      ],
      "min": [
        -2.912564277648926,
        -1.432074785232544,
        0.3252217769622803
      ],
      "type": "VEC3"
    },
    {
      "bufferView": 2,
      "byteOffset": 655488,
      "componentType": 5126,
      "count": 324,
      "max": [
        0.9963873028755188,
        0.9977850317955017,
        0.9986522197723389
      ],
      "min": [
        -0.9956321716308594,
        -0.9965161085128784,
        -0.9264433979988098
      ],
      "type": "VEC3"
    },
    {
      "bufferView": 1,
      "byteOffset": 217200,
      "componentType": 5126,
      "count": 324,
      "max": [
        0.5064961910247803,
        0.8833467960357666
      ],
      "min": [
        0.416750967502594,
        0.6262699365615845
      ],
      "type": "VEC2"
    },
    {
      "bufferView": 0,
      "byteOffset": 166440,
      "componentType": 5125,
      "count": 1602,
      "type": "SCALAR"
    },
    {
      "bufferView": 2,
      "byteOffset": 659376,
      "componentType": 5126,
      "count": 660,
      "max": [
        1.3456934690475464,
        -0.5128136873245239,
        7.118939399719238
      ],
      "min": [
        -0.3216589689254761,
        -1.5450172424316406,
        5.107652187347412
      ],
      "type": "VEC3"
    },
    {
      "bufferView": 2,
      "byteOffset": 667296,
      "componentType": 5126,
      "count": 660,
      "max": [
        0.9971892833709717,
        0.9968758225440979,
        0.9826966524124146
      ],
      "min": [
        -0.9971892833709717,
        -0.9968758225440979,
        -0.9826966524124146
      ],
      "type": "VEC3"
    },
    {
      "bufferView": 1,
      "byteOffset": 219792,
      "componentType": 5126,
      "count": 660,
      "max": [
        0.9976340532302856,
        0.4682835638523102
      ],
      "min": [
        0.03716825693845749,
        0.004098325502127409
      ],
      "type": "VEC2"
    },
    {
      "bufferView": 0,
      "byteOffset": 172848,
      "componentType": 5125,
      "count": 1740,
      "type": "SCALAR"
    },
    {
      "bufferView": 2,
      "byteOffset": 675216,
      "componentType": 5126,
      "count": 48,
      "max": [
        4.342677593231201,
        4.341422080993652,
        0.5969669818878174
      ],
      "min": [
        -4.356603145599365,
        -4.346053123474121,
        -0.1963750123977661
      ],
      "type": "VEC3"
    },
    {
      "bufferView": 2,
      "byteOffset": 675792,
      "componentType": 5126,
      "count": 48,
      "max": [
        0.9290832877159119,
        0.9085623621940613,
        0.41774946451187134
      ],
      "min": [
        -0.9290832877159119,
        -0.9470906257629395,
        -0.9946655035018921
      ],
      "type": "VEC3"
    },
    {
      "bufferView": 1,
      "byteOffset": 225072,
      "componentType": 5126,
      "count": 48,
      "max": [
        0.6140086054801941,
        0.6175560355186462
      ],
      "min": [
        0.48236721754074097,
        0.44706135988235474
      ],
      "type": "VEC2"
    },
    {
      "bufferView": 0,
      "byteOffset": 179808,
      "componentType": 5125,
      "count": 276,
      "type": "SCALAR"
    }
  ],
  "asset": {
    "extras": {
      "author": "Liberi Arcano (https://sketchfab.com/LiberiArcano)",
      "license": "CC-BY-4.0 (http://creativecommons.org/licenses/by/4.0/)",
      "source": "https://sketchfab.com/3d-models/3december-2021-day-4-cottage-64e7f2edd1dd46258a8c8001b1ed11af",
      "title": "3December 2021 Day 4: Cottage"
    },
    "generator": "Sketchfab-12.67.0",
    "version": "2.0"
  },
  "bufferViews": [
    {
      "buffer": 0,
      "byteLength": 180912,
      "name": "floatBufferViews",
      "target": 34963
    },
    {
      "buffer": 0,
      "byteLength": 225456,
      "byteOffset": 180912,
      "byteStride": 8,
      "name": "floatBufferViews",
      "target": 34962
    },
    {
      "buffer": 0,
      "byteLength": 676368,
      "byteOffset": 406368,
      "byteStride": 12,
      "name": "floatBufferViews",
      "target": 34962
    }
  ],
  "buffers": [
    {
      "byteLength": 1082736,
      "uri": "scene.bin"
    }
  ],
  "images": [
    {
      "uri": "textures/Rooftiles_baseColor.png"
    },
    {
      "uri": "textures/Land_baseColor.png"
    }
  ],
  "materials": [
    {
      "doubleSided": true,
      "name": "Rooftiles",
      "pbrMetallicRoughness": {
        "baseColorTexture": {
          "index": 0
        },
        "metallicFactor": 0.0
      }
    },
    {
      "doubleSided": true,
      "name": "Wood",
      "pbrMetallicRoughness": {
        "baseColorTexture": {
          "index": 0
        },
        "metallicFactor": 0.0
      }
    },
    {
      "doubleSided": true,
      "name": "Window",
      "pbrMetallicRoughness": {
        "baseColorFactor": [
          0.360291,
          0.7014479999999996,
          0.7999999999999999,
          1.0
        ],
        "metallicFactor": 0.0,
        "roughnessFactor": 0.8708743428346408
      }
    },
    {
      "doubleSided": true,
      "name": "Cottage_Base",
      "pbrMetallicRoughness": {
        "baseColorTexture": {
          "index": 0
        },
        "metallicFactor": 0.0
      }
    },
    {
      "doubleSided": true,
      "name": "Stone",
      "pbrMetallicRoughness": {
        "baseColorTexture": {
          "index": 0
        },
        "metallicFactor": 0.0
      }
    },
    {
      "doubleSided": true,
      "name": "Smoke",
      "pbrMetallicRoughness": {
        "baseColorFactor": [
          0.5852735023808678,
          0.9426090980889349,
          0.8883433773919728,
          1.0
        ],
        "metallicFactor": 0.0,
        "roughnessFactor": 0.8244368572198129
      }
    },
    {
      "doubleSided": true,
      "name": "Land",
      "pbrMetallicRoughness": {
        "baseColorTexture": {
          "index": 1
        },
        "metallicFactor": 0.0,
        "roughnessFactor": 0.8211145618000169
      }
    }
  ],
  "meshes": [
    {
      "name": "Cube.007_Rooftiles_0",
      "primitives": [
        {
          "attributes": {
            "NORMAL": 1,
            "POSITION": 0,
            "TEXCOORD_0": 2
          },
          "indices": 3,
          "material": 0,
          "mode": 4
        }
      ]
    },
    {
      "name": "Cube.007_Wood_0",
      "primitives": [
        {
          "attributes": {
            "NORMAL": 5,
            "POSITION": 4,
            "TEXCOORD_0": 6
          },
          "indices": 7,
          "material": 1,
          "mode": 4
        }
      ]
    },
    {
      "name": "Cube.007_Window_0",
      "primitives": [
        {
          "attributes": {
            "NORMAL": 9,
            "POSITION": 8,
            "TEXCOORD_0": 10
          },
          "indices": 11,
          "material": 2,
          "mode": 4
        }
      ]
    },
    {
      "name": "Cube.007_Cottage_Base_0",
      "primitives": [
        {
          "attributes": {
            "NORMAL": 13,
            "POSITION": 12,
            "TEXCOORD_0": 14
          },
          "indices": 15,
          "material": 3,
          "mode": 4
        }
      ]
    },
    {
      "name": "Cube.007_Stone_0",
      "primitives": [
        {
          "attributes": {
            "NORMAL": 17,
            "POSITION": 16,
            "TEXCOORD_0": 18
          },
          "indices": 19,
          "material": 4,
          "mode": 4
        }
      ]
    },
    {
      "name": "Cube.007_Smoke_0",
      "primitives": [
        {
          "attributes": {
            "NORMAL": 21,
            "POSITION": 20,
            "TEXCOORD_0": 22
          },
          "indices": 23,
          "material": 5,
          "mode": 4
        }
      ]
    },
    {
      "name": "Cube.007_Land_0",
      "primitives": [
        {
          "attributes": {
            "NORMAL": 25,
            "POSITION": 24,
            "TEXCOORD_0": 26
          },
          "indices": 27,
          "material": 6,
          "mode": 4
        }
      ]
    }
  ],
  "nodes": [
    {
      "children": [
        1
      ],
      "matrix": [
        1.0,
        0.0,
        0.0,
        0.0,
        0.0,
        2.220446049250313e-16,
        -1.0,
        0.0,
        0.0,
        1.0,
        2.220446049250313e-16,
        0.0,
        0.0,
        0.0,
        0.0,
        1.0
      ],
      "name": "Sketchfab_model"
    },
    {
      "children": [
        2
      ],
      "matrix": [
        0.009999999776482582,
        0.0,
        0.0,
        0.0,
        0.0,
        0.0,
        0.009999999776482582,
        0.0,
        0.0,
        -0.009999999776482582,
        0.0,
        0.0,
        0.0,
        0.0,
        0.0,
        1.0
      ],
      "name": "8ebf4466a0be4cc7a32b409736f742f2.fbx"
    },
    {
      "children": [
        3
      ],
      "name": "RootNode"
    },
    {
      "children": [
        4,
        5,
        6,
        7,
        8,
        9,
        10
      ],
      "matrix": [
        -99.99999999999847,
        -8.742277980456388e-06,
        1.5099578831723135e-05,
        0.0,
        1.5534381429342664e-05,
        -5.207966201528858,
        99.86428571899287,
        0.0,
        -7.944032498622217e-06,
        99.86428571899368,
        5.207966201530157,
        0.0,
        0.0,
        0.0,
        0.0,
        1.0
      ],
      "name": "Cube.007"
    },
    {
      "mesh": 0,
      "name": "Cube.007_Rooftiles_0"
    },
    {
      "mesh": 1,
      "name": "Cube.007_Wood_0"
    },
    {
      "mesh": 2,
      "name": "Cube.007_Window_0"
    },
    {
      "mesh": 3,
      "name": "Cube.007_Cottage_Base_0"
    },
    {
      "mesh": 4,
      "name": "Cube.007_Stone_0"
    },
    {
      "mesh": 5,
      "name": "Cube.007_Smoke_0"
    },
    {
      "mesh": 6,
      "name": "Cube.007_Land_0"
    }
  ],
  "samplers": [
    {
      "magFilter": 9729,
      "minFilter": 9987,
      "wrapS": 10497,
      "wrapT": 10497
    }
  ],
  "scene": 0,
  "scenes": [
    {
      "name": "Sketchfab_Scene",
      "nodes": [
        0
      ]
    }
  ],
  "textures": [
    {
      "sampler": 0,
      "source": 0
    },
    {
      "sampler": 0,
      "source": 1
    }
  ]
}
